<?xml version="1.0" encoding="UTF-8"?>
<svg width="116px" height="50px" viewBox="0 0 116 50" version="1.1" xmlns="http://www.w3.org/2000/svg" xmlns:xlink="http://www.w3.org/1999/xlink">
    <title>logo-black-boutiqe</title>
    <g id="Page-1" stroke="none" stroke-width="1" fill="none" fill-rule="evenodd">
        <g id="Branding" transform="translate(-349.000000, -85.000000)" fill="#1A1A1A" fill-rule="nonzero">
            <g id="logo-black-boutiqe" transform="translate(349.000000, 85.000000)">
                <path d="M4.78076164,31 C5.18709808,31 5.51652859,30.7184567 5.51652859,30.3718558 L5.51365873,7.21131217 C5.51365873,4.1087322 8.44639534,1.51035044 12.0758722,1.5714815 L13.0561298,1.57035942 C16.6230493,1.57484625 19.4828981,4.1474306 19.4828981,7.21075113 L19.4851938,30.3712947 C19.4851938,30.7184559 19.8146243,30.9994382 20.22096,30.9994382 L24.2642338,30.9994382 C24.6699961,30.9994382 25,30.7178949 25,30.371294 L24.9977043,9.42327254 C24.9971301,4.21921695 19.6481863,0 13.0509642,0 L11.9461667,0 C5.34837051,0 0,4.21921847 0,9.42383509 L0.00229573421,30.3718565 C0.00229573421,30.7190177 0.331726242,31 0.738061911,31 L4.78076164,31 Z M43.0524618,32 C49.6510155,32 55,27.7755101 55,22.5643881 L55,1.62893011 C55,1.28189597 54.6699575,1 54.2641494,1 L50.2209863,1 C49.8146032,1 49.485709,1.28189521 49.485709,1.62892935 L49.485709,24.7796758 C49.485709,27.8861337 46.5526357,30.4877633 42.9227422,30.4265558 L41.942372,30.4276793 C38.3744689,30.4226258 35.5148659,27.8473877 35.5148659,24.7796765 L35.5148659,1.62893011 C35.5148659,1.28189597 35.1848234,1 34.7790153,1 L30.7352772,1 C30.3294683,1 30,1.28189597 30,1.62893011 L30,22.5643881 C30,27.7755101 35.349558,32 41.9475374,32 L43.0524618,32 Z M71.4791079,32 C76.1823655,32 83,29.3509729 83,22.0343974 C82.9994274,15.4437222 77.3460169,13.8654822 72.3725956,13.1068435 C68.0408133,12.4464186 63.9625958,10.6519892 63.9625958,7.13763951 C63.9625958,3.62328986 67.6252642,1.63750786 70.7344396,1.63750786 C73.7045265,1.63750786 75.8967474,4.29782451 75.8967474,7.21384278 C75.8967474,8.69443057 77.1239335,9.89504446 78.6384548,9.89504446 C80.1524034,9.89504446 81.3801614,8.69443057 81.3801614,7.21384278 C81.3807339,3.08309929 77.1462567,0 70.8082778,0 C66.4375742,0 60.1024568,2.45202946 60.1024568,9.38251188 C60.1024568,16.313559 66.5177071,17.4131342 71.4676608,18.3857044 C75.7181644,19.2211103 78.8456563,21.1137566 78.8456563,24.4045784 C78.8456563,28.1142325 74.9042385,30.2710474 71.5580971,30.2710474 C68.3619194,30.2710474 65.488565,27.2246385 65.488565,24.5682738 C65.488565,23.2700076 64.2711097,22.0259305 62.7594506,22.0259305 C61.2077251,22.0259305 60,23.275652 60,24.818331 C60,28.5810447 64.6591846,32 71.4791079,32 Z M99.4791079,32 C104.182366,32 111,29.3509729 111,22.0343974 C110.999427,15.4437222 105.346017,13.8654822 100.372596,13.1068435 C96.0408133,12.4464186 91.9625958,10.6519892 91.9625958,7.13763951 C91.9625958,3.62328986 95.6252642,1.63750786 98.7344396,1.63750786 C101.704526,1.63750786 103.896747,4.29782451 103.896747,7.21384278 C103.896747,8.69443057 105.123933,9.89504446 106.638455,9.89504446 C108.152403,9.89504446 109.380161,8.69443057 109.380161,7.21384278 C109.380734,3.08309929 105.146257,0 98.8082778,0 C94.4375742,0 88.1024568,2.45202946 88.1024568,9.38251188 C88.1024568,16.313559 94.5177071,17.4131342 99.4676608,18.3857044 C103.718164,19.2211103 106.845656,21.1137566 106.845656,24.4045784 C106.845656,28.1142325 102.904238,30.2710474 99.5580971,30.2710474 C96.3619194,30.2710474 93.488565,27.2246385 93.488565,24.5682738 C93.488565,23.2700076 92.2711097,22.0259305 90.7594506,22.0259305 C89.2077251,22.0259305 88,23.275652 88,24.818331 C88,28.5810447 92.6591846,32 99.4791079,32 Z" id="nuss"></path>
                <path d="M2.592,47 C3.01333333,47 3.38,46.944 3.692,46.832 C4.004,46.72 4.248,46.5466667 4.424,46.312 C4.6,46.0773333 4.688,45.776 4.688,45.408 C4.688,45.024 4.57733333,44.7146667 4.356,44.48 C4.13466667,44.2453333 3.85866667,44.0773333 3.528,43.976 C3.78933333,43.8693333 3.99466667,43.7186667 4.144,43.524 C4.29333333,43.3293333 4.368,43.0933333 4.368,42.816 C4.368,42.496 4.28666667,42.232 4.124,42.024 C3.96133333,41.816 3.73866667,41.66 3.456,41.556 C3.17333333,41.452 2.848,41.4 2.48,41.4 L2.48,41.4 L0.608,41.4 L0.608,47 L2.592,47 Z M2.376,43.64 L1.752,43.64 L1.752,42.312 L2.376,42.312 C2.62133333,42.312 2.81733333,42.368 2.964,42.48 C3.11066667,42.592 3.184,42.7546667 3.184,42.968 C3.184,43.1813333 3.11066667,43.3466667 2.964,43.464 C2.81733333,43.5813333 2.62133333,43.64 2.376,43.64 L2.376,43.64 Z M2.488,46.088 L1.752,46.088 L1.752,44.472 L2.488,44.472 C2.78133333,44.472 3.024,44.5346667 3.216,44.66 C3.408,44.7853333 3.504,44.9866667 3.504,45.264 C3.504,45.5573333 3.408,45.768 3.216,45.896 C3.024,46.024 2.78133333,46.088 2.488,46.088 L2.488,46.088 Z M11.696,47.152 C12.128,47.152 12.524,47.0786667 12.884,46.932 C13.244,46.7853333 13.556,46.58 13.82,46.316 C14.084,46.052 14.2893333,45.74 14.436,45.38 C14.5826667,45.02 14.656,44.6266667 14.656,44.2 C14.656,43.7733333 14.5826667,43.3826667 14.436,43.028 C14.2893333,42.6733333 14.0826667,42.3653333 13.816,42.104 C13.5493333,41.8426667 13.236,41.6413333 12.876,41.5 C12.516,41.3586667 12.1226667,41.288 11.696,41.288 C11.2746667,41.288 10.8853333,41.3586667 10.528,41.5 C10.1706667,41.6413333 9.85733333,41.8426667 9.588,42.104 C9.31866667,42.3653333 9.10933333,42.6733333 8.96,43.028 C8.81066667,43.3826667 8.736,43.7733333 8.736,44.2 C8.736,44.6266667 8.80933333,45.02 8.956,45.38 C9.10266667,45.74 9.308,46.052 9.572,46.316 C9.836,46.58 10.148,46.7853333 10.508,46.932 C10.868,47.0786667 11.264,47.152 11.696,47.152 Z M11.696,46.04 C11.3546667,46.04 11.052,45.9613333 10.788,45.804 C10.524,45.6466667 10.3186667,45.4293333 10.172,45.152 C10.0253333,44.8746667 9.952,44.5573333 9.952,44.2 C9.952,43.8426667 10.0253333,43.5253333 10.172,43.248 C10.3186667,42.9706667 10.524,42.7533333 10.788,42.596 C11.052,42.4386667 11.3546667,42.36 11.696,42.36 C12.048,42.36 12.3546667,42.4386667 12.616,42.596 C12.8773333,42.7533333 13.08,42.9706667 13.224,43.248 C13.368,43.5253333 13.44,43.8426667 13.44,44.2 C13.44,44.5573333 13.3666667,44.8746667 13.22,45.152 C13.0733333,45.4293333 12.8693333,45.6466667 12.608,45.804 C12.3466667,45.9613333 12.0426667,46.04 11.696,46.04 Z M21.048,47.184 C21.4586667,47.184 21.8253333,47.1066667 22.148,46.952 C22.4706667,46.7973333 22.7253333,46.5693333 22.912,46.268 C23.0986667,45.9666667 23.192,45.5973333 23.192,45.16 L23.192,45.16 L23.192,41.4 L22.048,41.4 L22.048,45.088 C22.048,45.4026667 21.964,45.6573333 21.796,45.852 C21.628,46.0466667 21.3786667,46.144 21.048,46.144 C20.7173333,46.144 20.468,46.0466667 20.3,45.852 C20.132,45.6573333 20.048,45.4026667 20.048,45.088 L20.048,45.088 L20.048,41.4 L18.904,41.4 L18.904,45.16 C18.904,45.5973333 18.9973333,45.9666667 19.184,46.268 C19.3706667,46.5693333 19.6253333,46.7973333 19.948,46.952 C20.2706667,47.1066667 20.6373333,47.184 21.048,47.184 Z M29.856,47 L29.856,42.44 L31.36,42.44 L31.36,41.4 L27.2,41.4 L27.2,42.44 L28.704,42.44 L28.704,47 L29.856,47 Z M36.576,47 L36.576,41.4 L35.416,41.4 L35.416,47 L36.576,47 Z M43.84,47.152 C44.176,47.152 44.492,47.1066667 44.788,47.016 C45.084,46.9253333 45.352,46.7946667 45.592,46.624 L45.592,46.624 L46.056,47.072 L47.336,47.072 L46.216,46.008 C46.3973333,45.7626667 46.5373333,45.4866667 46.636,45.18 C46.7346667,44.8733333 46.784,44.5466667 46.784,44.2 C46.784,43.7733333 46.7106667,43.3826667 46.564,43.028 C46.4173333,42.6733333 46.212,42.3653333 45.948,42.104 C45.684,41.8426667 45.3733333,41.6413333 45.016,41.5 C44.6586667,41.3586667 44.2666667,41.288 43.84,41.288 C43.4186667,41.288 43.028,41.3586667 42.668,41.5 C42.308,41.6413333 41.9933333,41.8426667 41.724,42.104 C41.4546667,42.3653333 41.244,42.6733333 41.092,43.028 C40.94,43.3826667 40.864,43.7733333 40.864,44.2 C40.864,44.6266667 40.9373333,45.02 41.084,45.38 C41.2306667,45.74 41.4373333,46.052 41.704,46.316 C41.9706667,46.58 42.2853333,46.7853333 42.648,46.932 C43.0106667,47.0786667 43.408,47.152 43.84,47.152 Z M43.912,46.112 C43.5706667,46.112 43.2613333,46.032 42.984,45.872 C42.7066667,45.712 42.4866667,45.488 42.324,45.2 C42.1613333,44.912 42.08,44.5786667 42.08,44.2 C42.08,43.8426667 42.1546667,43.5253333 42.304,43.248 C42.4533333,42.9706667 42.6613333,42.7533333 42.928,42.596 C43.1946667,42.4386667 43.4986667,42.36 43.84,42.36 C44.2133333,42.36 44.5373333,42.448 44.812,42.624 C45.0866667,42.8 45.2986667,43.0346667 45.448,43.328 C45.5973333,43.6213333 45.672,43.9466667 45.672,44.304 C45.672,44.6666667 45.592,44.9893333 45.432,45.272 L45.432,45.272 L44.728,44.6 L43.48,44.6 L44.816,45.888 C44.5493333,46.0373333 44.248,46.112 43.912,46.112 Z M53.416,47.184 C53.8266667,47.184 54.1933333,47.1066667 54.516,46.952 C54.8386667,46.7973333 55.0933333,46.5693333 55.28,46.268 C55.4666667,45.9666667 55.56,45.5973333 55.56,45.16 L55.56,45.16 L55.56,41.4 L54.416,41.4 L54.416,45.088 C54.416,45.4026667 54.332,45.6573333 54.164,45.852 C53.996,46.0466667 53.7466667,46.144 53.416,46.144 C53.0853333,46.144 52.836,46.0466667 52.668,45.852 C52.5,45.6573333 52.416,45.4026667 52.416,45.088 L52.416,45.088 L52.416,41.4 L51.272,41.4 L51.272,45.16 C51.272,45.5973333 51.3653333,45.9666667 51.552,46.268 C51.7386667,46.5693333 51.9933333,46.7973333 52.316,46.952 C52.6386667,47.1066667 53.0053333,47.184 53.416,47.184 Z M63.688,47 L63.688,46.032 L61.24,46.032 L61.24,44.504 L63.528,44.504 L63.528,43.552 L61.24,43.552 L61.24,42.368 L63.688,42.368 L63.688,41.4 L60.128,41.4 L60.128,47 L63.688,47 Z M75.16,47 L75.16,44.536 L77.776,44.536 L77.776,47 L78.92,47 L78.92,41.4 L77.776,41.4 L77.776,43.504 L75.16,43.504 L75.16,41.4 L74.016,41.4 L74.016,47 L75.16,47 Z M86.168,47.152 C86.6,47.152 86.996,47.0786667 87.356,46.932 C87.716,46.7853333 88.028,46.58 88.292,46.316 C88.556,46.052 88.7613333,45.74 88.908,45.38 C89.0546667,45.02 89.128,44.6266667 89.128,44.2 C89.128,43.7733333 89.0546667,43.3826667 88.908,43.028 C88.7613333,42.6733333 88.5546667,42.3653333 88.288,42.104 C88.0213333,41.8426667 87.708,41.6413333 87.348,41.5 C86.988,41.3586667 86.5946667,41.288 86.168,41.288 C85.7466667,41.288 85.3573333,41.3586667 85,41.5 C84.6426667,41.6413333 84.3293333,41.8426667 84.06,42.104 C83.7906667,42.3653333 83.5813333,42.6733333 83.432,43.028 C83.2826667,43.3826667 83.208,43.7733333 83.208,44.2 C83.208,44.6266667 83.2813333,45.02 83.428,45.38 C83.5746667,45.74 83.78,46.052 84.044,46.316 C84.308,46.58 84.62,46.7853333 84.98,46.932 C85.34,47.0786667 85.736,47.152 86.168,47.152 Z M86.168,46.04 C85.8266667,46.04 85.524,45.9613333 85.26,45.804 C84.996,45.6466667 84.7906667,45.4293333 84.644,45.152 C84.4973333,44.8746667 84.424,44.5573333 84.424,44.2 C84.424,43.8426667 84.4973333,43.5253333 84.644,43.248 C84.7906667,42.9706667 84.996,42.7533333 85.26,42.596 C85.524,42.4386667 85.8266667,42.36 86.168,42.36 C86.52,42.36 86.8266667,42.4386667 87.088,42.596 C87.3493333,42.7533333 87.552,42.9706667 87.696,43.248 C87.84,43.5253333 87.912,43.8426667 87.912,44.2 C87.912,44.5573333 87.8386667,44.8746667 87.692,45.152 C87.5453333,45.4293333 87.3413333,45.6466667 87.08,45.804 C86.8186667,45.9613333 86.5146667,46.04 86.168,46.04 Z M95.272,47 L95.272,42.44 L96.776,42.44 L96.776,41.4 L92.616,41.4 L92.616,42.44 L94.12,42.44 L94.12,47 L95.272,47 Z M104.392,47 L104.392,46.032 L101.944,46.032 L101.944,44.504 L104.232,44.504 L104.232,43.552 L101.944,43.552 L101.944,42.368 L104.392,42.368 L104.392,41.4 L100.832,41.4 L100.832,47 L104.392,47 Z M112.296,47 L112.296,46 L110.064,46 L110.064,41.4 L108.92,41.4 L108.92,47 L112.296,47 Z" id="BOUTIQUEHOTEL"></path>
            </g>
        </g>
    </g>
</svg>