<?xml version="1.0" encoding="UTF-8"?>
<svg width="115px" height="50px" viewBox="0 0 115 50" version="1.1" xmlns="http://www.w3.org/2000/svg" xmlns:xlink="http://www.w3.org/1999/xlink">
    <title>logo-white-luxury</title>
    <g id="Page-1" stroke="none" stroke-width="1" fill="none" fill-rule="evenodd">
        <g id="Branding" transform="translate(-698.000000, -160.000000)" fill="#FFFFFF" fill-rule="nonzero">
            <g id="logo-white-luxury" transform="translate(698.000000, 160.000000)">
                <path d="M4.78076164,31 C5.18709808,31 5.51652859,30.7184567 5.51652859,30.3718558 L5.51365873,7.21131217 C5.51365873,4.1087322 8.44639534,1.51035044 12.0758722,1.5714815 L13.0561298,1.57035942 C16.6230493,1.57484625 19.4828981,4.1474306 19.4828981,7.21075113 L19.4851938,30.3712947 C19.4851938,30.7184559 19.8146243,30.9994382 20.22096,30.9994382 L24.2642338,30.9994382 C24.6699961,30.9994382 25,30.7178949 25,30.371294 L24.9977043,9.42327254 C24.9971301,4.21921695 19.6481863,0 13.0509642,0 L11.9461667,0 C5.34837051,0 0,4.21921847 0,9.42383509 L0.00229573421,30.3718565 C0.00229573421,30.7190177 0.331726242,31 0.738061911,31 L4.78076164,31 Z M43.0524618,32 C49.6510155,32 55,27.7755101 55,22.5643881 L55,1.62893011 C55,1.28189597 54.6699575,1 54.2641494,1 L50.2209863,1 C49.8146032,1 49.485709,1.28189521 49.485709,1.62892935 L49.485709,24.7796758 C49.485709,27.8861337 46.5526357,30.4877633 42.9227422,30.4265558 L41.942372,30.4276793 C38.3744689,30.4226258 35.5148659,27.8473877 35.5148659,24.7796765 L35.5148659,1.62893011 C35.5148659,1.28189597 35.1848234,1 34.7790153,1 L30.7352772,1 C30.3294683,1 30,1.28189597 30,1.62893011 L30,22.5643881 C30,27.7755101 35.349558,32 41.9475374,32 L43.0524618,32 Z M71.4791079,32 C76.1823655,32 83,29.3509729 83,22.0343974 C82.9994274,15.4437222 77.3460169,13.8654822 72.3725956,13.1068435 C68.0408133,12.4464186 63.9625958,10.6519892 63.9625958,7.13763951 C63.9625958,3.62328986 67.6252642,1.63750786 70.7344396,1.63750786 C73.7045265,1.63750786 75.8967474,4.29782451 75.8967474,7.21384278 C75.8967474,8.69443057 77.1239335,9.89504446 78.6384548,9.89504446 C80.1524034,9.89504446 81.3801614,8.69443057 81.3801614,7.21384278 C81.3807339,3.08309929 77.1462567,0 70.8082778,0 C66.4375742,0 60.1024568,2.45202946 60.1024568,9.38251188 C60.1024568,16.313559 66.5177071,17.4131342 71.4676608,18.3857044 C75.7181644,19.2211103 78.8456563,21.1137566 78.8456563,24.4045784 C78.8456563,28.1142325 74.9042385,30.2710474 71.5580971,30.2710474 C68.3619194,30.2710474 65.488565,27.2246385 65.488565,24.5682738 C65.488565,23.2700076 64.2711097,22.0259305 62.7594506,22.0259305 C61.2077251,22.0259305 60,23.275652 60,24.818331 C60,28.5810447 64.6591846,32 71.4791079,32 Z M99.4791079,32 C104.182366,32 111,29.3509729 111,22.0343974 C110.999427,15.4437222 105.346017,13.8654822 100.372596,13.1068435 C96.0408133,12.4464186 91.9625958,10.6519892 91.9625958,7.13763951 C91.9625958,3.62328986 95.6252642,1.63750786 98.7344396,1.63750786 C101.704526,1.63750786 103.896747,4.29782451 103.896747,7.21384278 C103.896747,8.69443057 105.123933,9.89504446 106.638455,9.89504446 C108.152403,9.89504446 109.380161,8.69443057 109.380161,7.21384278 C109.380734,3.08309929 105.146257,0 98.8082778,0 C94.4375742,0 88.1024568,2.45202946 88.1024568,9.38251188 C88.1024568,16.313559 94.5177071,17.4131342 99.4676608,18.3857044 C103.718164,19.2211103 106.845656,21.1137566 106.845656,24.4045784 C106.845656,28.1142325 102.904238,30.2710474 99.5580971,30.2710474 C96.3619194,30.2710474 93.488565,27.2246385 93.488565,24.5682738 C93.488565,23.2700076 92.2711097,22.0259305 90.7594506,22.0259305 C89.2077251,22.0259305 88,23.275652 88,24.818331 C88,28.5810447 92.6591846,32 99.4791079,32 Z" id="nuss"></path>
                <path d="M3.984,47 L3.984,46 L1.752,46 L1.752,41.4 L0.608,41.4 L0.608,47 L3.984,47 Z M10.744,47.184 C11.1546667,47.184 11.5213333,47.1066667 11.844,46.952 C12.1666667,46.7973333 12.4213333,46.5693333 12.608,46.268 C12.7946667,45.9666667 12.888,45.5973333 12.888,45.16 L12.888,45.16 L12.888,41.4 L11.744,41.4 L11.744,45.088 C11.744,45.4026667 11.66,45.6573333 11.492,45.852 C11.324,46.0466667 11.0746667,46.144 10.744,46.144 C10.4133333,46.144 10.164,46.0466667 9.996,45.852 C9.828,45.6573333 9.744,45.4026667 9.744,45.088 L9.744,45.088 L9.744,41.4 L8.6,41.4 L8.6,45.16 C8.6,45.5973333 8.69333333,45.9666667 8.88,46.268 C9.06666667,46.5693333 9.32133333,46.7973333 9.644,46.952 C9.96666667,47.1066667 10.3333333,47.184 10.744,47.184 Z M18.896,47 L20.048,44.992 L21.16,47 L22.568,47 L20.728,44.112 L22.448,41.4 L21.04,41.4 L20.056,43.16 L19.096,41.4 L17.696,41.4 L19.384,44.112 L17.496,47 L18.896,47 Z M29.952,47 L29.952,44.68 L31.88,41.4 L30.568,41.4 L29.368,43.656 L28.168,41.4 L26.856,41.4 L28.784,44.688 L28.784,47 L29.952,47 Z M37.632,47 L37.632,44.968 L38.128,44.968 L39.44,47 L40.8,47 L39.28,44.832 C39.6586667,44.6986667 39.9506667,44.4893333 40.156,44.204 C40.3613333,43.9186667 40.464,43.5786667 40.464,43.184 C40.464,42.8266667 40.3813333,42.5146667 40.216,42.248 C40.0506667,41.9813333 39.812,41.7733333 39.5,41.624 C39.188,41.4746667 38.8106667,41.4 38.368,41.4 L38.368,41.4 L36.488,41.4 L36.488,47 L37.632,47 Z M38.296,44.056 L37.632,44.056 L37.632,42.384 L38.296,42.384 C38.5946667,42.384 38.8333333,42.456 39.012,42.6 C39.1906667,42.744 39.28,42.9493333 39.28,43.216 C39.28,43.4826667 39.1906667,43.6893333 39.012,43.836 C38.8333333,43.9826667 38.5946667,44.056 38.296,44.056 L38.296,44.056 Z M47.944,47 L47.944,44.68 L49.872,41.4 L48.56,41.4 L47.36,43.656 L46.16,41.4 L44.848,41.4 L46.776,44.688 L46.776,47 L47.944,47 Z M62.024,47 L62.024,44.968 L62.52,44.968 L63.832,47 L65.192,47 L63.672,44.832 C64.0506667,44.6986667 64.3426667,44.4893333 64.548,44.204 C64.7533333,43.9186667 64.856,43.5786667 64.856,43.184 C64.856,42.8266667 64.7733333,42.5146667 64.608,42.248 C64.4426667,41.9813333 64.204,41.7733333 63.892,41.624 C63.58,41.4746667 63.2026667,41.4 62.76,41.4 L62.76,41.4 L60.88,41.4 L60.88,47 L62.024,47 Z M62.688,44.056 L62.024,44.056 L62.024,42.384 L62.688,42.384 C62.9866667,42.384 63.2253333,42.456 63.404,42.6 C63.5826667,42.744 63.672,42.9493333 63.672,43.216 C63.672,43.4826667 63.5826667,43.6893333 63.404,43.836 C63.2253333,43.9826667 62.9866667,44.056 62.688,44.056 L62.688,44.056 Z M73.4,47 L73.4,46.032 L70.952,46.032 L70.952,44.504 L73.24,44.504 L73.24,43.552 L70.952,43.552 L70.952,42.368 L73.4,42.368 L73.4,41.4 L69.84,41.4 L69.84,47 L73.4,47 Z M80.432,47.152 C80.8106667,47.152 81.1493333,47.0853333 81.448,46.952 C81.7466667,46.8186667 81.9813333,46.624 82.152,46.368 C82.3226667,46.112 82.408,45.8053333 82.408,45.448 C82.408,45.1173333 82.34,44.8413333 82.204,44.62 C82.068,44.3986667 81.8906667,44.2173333 81.672,44.076 C81.4533333,43.9346667 81.224,43.8213333 80.984,43.736 C80.76,43.6506667 80.5506667,43.5693333 80.356,43.492 C80.1613333,43.4146667 80.0026667,43.3253333 79.88,43.224 C79.7573333,43.1226667 79.696,43 79.696,42.856 C79.696,42.68 79.756,42.54 79.876,42.436 C79.996,42.332 80.1653333,42.28 80.384,42.28 C80.6293333,42.28 80.84,42.3493333 81.016,42.488 C81.192,42.6266667 81.3386667,42.8053333 81.456,43.024 L81.456,43.024 L82.336,42.504 C82.24,42.296 82.108,42.1 81.94,41.916 C81.772,41.732 81.5626667,41.5813333 81.312,41.464 C81.0613333,41.3466667 80.7626667,41.288 80.416,41.288 C80.0426667,41.288 79.7133333,41.3533333 79.428,41.484 C79.1426667,41.6146667 78.92,41.7946667 78.76,42.024 C78.6,42.2533333 78.52,42.5226667 78.52,42.832 C78.52,43.104 78.5706667,43.3346667 78.672,43.524 C78.7733333,43.7133333 78.9013333,43.8706667 79.056,43.996 C79.2106667,44.1213333 79.372,44.2226667 79.54,44.3 C79.708,44.3773333 79.8613333,44.4426667 80,44.496 C80.2133333,44.576 80.4106667,44.6573333 80.592,44.74 C80.7733333,44.8226667 80.92,44.9213333 81.032,45.036 C81.144,45.1506667 81.2,45.2986667 81.2,45.48 C81.2,45.9173333 80.944,46.136 80.432,46.136 C80.1226667,46.136 79.8613333,46.0426667 79.648,45.856 C79.4346667,45.6693333 79.2346667,45.4026667 79.048,45.056 L79.048,45.056 L78.208,45.624 C78.3253333,45.9173333 78.496,46.18 78.72,46.412 C78.944,46.644 79.2026667,46.8253333 79.496,46.956 C79.7893333,47.0866667 80.1013333,47.152 80.432,47.152 Z M89.976,47.152 C90.408,47.152 90.804,47.0786667 91.164,46.932 C91.524,46.7853333 91.836,46.58 92.1,46.316 C92.364,46.052 92.5693333,45.74 92.716,45.38 C92.8626667,45.02 92.936,44.6266667 92.936,44.2 C92.936,43.7733333 92.8626667,43.3826667 92.716,43.028 C92.5693333,42.6733333 92.3626667,42.3653333 92.096,42.104 C91.8293333,41.8426667 91.516,41.6413333 91.156,41.5 C90.796,41.3586667 90.4026667,41.288 89.976,41.288 C89.5546667,41.288 89.1653333,41.3586667 88.808,41.5 C88.4506667,41.6413333 88.1373333,41.8426667 87.868,42.104 C87.5986667,42.3653333 87.3893333,42.6733333 87.24,43.028 C87.0906667,43.3826667 87.016,43.7733333 87.016,44.2 C87.016,44.6266667 87.0893333,45.02 87.236,45.38 C87.3826667,45.74 87.588,46.052 87.852,46.316 C88.116,46.58 88.428,46.7853333 88.788,46.932 C89.148,47.0786667 89.544,47.152 89.976,47.152 Z M89.976,46.04 C89.6346667,46.04 89.332,45.9613333 89.068,45.804 C88.804,45.6466667 88.5986667,45.4293333 88.452,45.152 C88.3053333,44.8746667 88.232,44.5573333 88.232,44.2 C88.232,43.8426667 88.3053333,43.5253333 88.452,43.248 C88.5986667,42.9706667 88.804,42.7533333 89.068,42.596 C89.332,42.4386667 89.6346667,42.36 89.976,42.36 C90.328,42.36 90.6346667,42.4386667 90.896,42.596 C91.1573333,42.7533333 91.36,42.9706667 91.504,43.248 C91.648,43.5253333 91.72,43.8426667 91.72,44.2 C91.72,44.5573333 91.6466667,44.8746667 91.5,45.152 C91.3533333,45.4293333 91.1493333,45.6466667 90.888,45.804 C90.6266667,45.9613333 90.3226667,46.04 89.976,46.04 Z M98.968,47 L98.968,44.968 L99.464,44.968 L100.776,47 L102.136,47 L100.616,44.832 C100.994667,44.6986667 101.286667,44.4893333 101.492,44.204 C101.697333,43.9186667 101.8,43.5786667 101.8,43.184 C101.8,42.8266667 101.717333,42.5146667 101.552,42.248 C101.386667,41.9813333 101.148,41.7733333 100.836,41.624 C100.524,41.4746667 100.146667,41.4 99.704,41.4 L99.704,41.4 L97.824,41.4 L97.824,47 L98.968,47 Z M99.632,44.056 L98.968,44.056 L98.968,42.384 L99.632,42.384 C99.9306667,42.384 100.169333,42.456 100.348,42.6 C100.526667,42.744 100.616,42.9493333 100.616,43.216 C100.616,43.4826667 100.526667,43.6893333 100.348,43.836 C100.169333,43.9826667 99.9306667,44.056 99.632,44.056 L99.632,44.056 Z M108.88,47 L108.88,42.44 L110.384,42.44 L110.384,41.4 L106.224,41.4 L106.224,42.44 L107.728,42.44 L107.728,47 L108.88,47 Z" id="LUXYRYRESORT"></path>
            </g>
        </g>
    </g>
</svg>